#!OML:ASF E:\Steps\Project 1\Capture day 1\Session 2\Subject.ASF
:FULLY-SPECIFIED
:DEGREES
240
root 8.9252 16.195 32.0518 -152.452 -1.67569 180.913
lowerback -15.1093 -1.26025 -2.19659
upperback 1.0065 -1.34745 0.210343
thorax 9.65477 -0.785489 1.15617
lowerneck -0.584752 -2.48825 -2.28234
upperneck -18.5266 -0.978205 6.8205
head -5.39911 -0.112706 2.50764
rclavicle 9.14409e-015 -1.19271e-015
rhumerus -46.599 -14.4236 -67.367
rradius 23.3809
rwrist 8.79519
rhand -6.72296 -47.8443
rfingers 7.12502
rthumb 19.1373 -76.9228
lclavicle 9.14409e-015 -1.19271e-015
lhumerus -43.4754 -13.7987 77.8423
lradius 30.3402
lwrist 1.68674
lhand -21.0566 -15.7126
lfingers 7.12502
lthumb 5.31967 14.2006
rfemur -32.6995 8.85468 18.8316
rtibia 18.6591
rfoot -24.4666 -9.9872
rtoes -31.1239
lfemur -35.1796 -12.6425 -13.5535
ltibia 20.5629
lfoot -15.3688 5.0586
ltoes -37.159
241
root 8.94711 16.2189 32.1319 -151.42 -1.93576 181.297
lowerback -14.0728 -1.27427 -1.99452
upperback 0.418878 -1.46936 0.479902
thorax 8.42772 -0.835456 1.32747
lowerneck -0.473573 -2.41532 -2.4188
upperneck -18.4961 -0.927625 6.70469
head -5.41073 -0.0823551 2.49326
rclavicle -3.18055e-015 -1.59028e-015
rhumerus -47.4261 -13.8038 -67.0976
rradius 23.5304
rwrist 8.52402
rhand -6.75482 -48.3345
rfingers 7.12502
rthumb 19.1066 -77.416
lclavicle -3.18055e-015 -1.59028e-015
lhumerus -44.7137 -14.4871 78.2618
lradius 30.8175
lwrist 2.27474
lhand -21.2693 -15.8295
lfingers 7.12502
lthumb 5.11436 14.0888
rfemur -35.1141 9.59085 18.8294
rtibia 20.2946
rfoot -24.6861 -10.9485
rtoes -31.3633
lfemur -37.8081 -12.1669 -12.3705
ltibia 22.455
lfoot -15.7787 5.20257
ltoes -38.5581
242
root 8.95056 16.2003 32.1469 -150.834 -1.64367 181.209
lowerback -13.8068 -1.24694 -2.09997
upperback 0.379323 -1.41824 0.445432
thorax 8.23356 -0.812625 1.36609
lowerneck -0.620898 -2.46142 -2.42622
upperneck -18.7326 -0.955881 6.60284
head -5.45897 -0.0709344 2.46387
rclavicle 1.07344e-014 -5.96354e-015
rhumerus -47.8967 -13.1128 -67.1202
rradius 23.6712
rwrist 7.98207
rhand -6.83735 -48.4835
rfingers 7.12502
rthumb 19.0272 -77.5728
lclavicle 1.07344e-014 -5.96354e-015
lhumerus -45.5514 -15.0038 78.4892
lradius 31.2692
lwrist 2.82906
lhand -21.4952 -15.0046
lfingers 7.12502
lthumb 4.89625 14.9188
rfemur -36.4092 9.697 18.5105
rtibia 21.2872
rfoot -24.9755 -10.8695
rtoes -31.3609
lfemur -38.9129 -12.2793 -12.2521
ltibia 23.3516
lfoot -16.2237 5.69788
ltoes -38.8952
243
root 8.95457 16.1829 32.1586 -150.365 -1.59939 181.03
lowerback -13.4349 -1.20747 -2.16661
upperback 0.390066 -1.34654 0.277044
thorax 8.02827 -0.774109 1.24527
lowerneck -0.765053 -2.68329 -2.06434
upperneck -19.0574 -1.17013 6.58312
head -5.53051 -0.171642 2.40609
rclavicle -1.98785e-014 3.97569e-015
rhumerus -48.584 -13.0676 -66.9808
rradius 23.7502
rwrist 7.7759
rhand -7.03156 -48.4319
rfingers 7.12502
rthumb 18.8405 -77.5394
lclavicle -1.98785e-014 3.97569e-015
lhumerus -46.3224 -15.7268 78.534
lradius 31.8012
lwrist 3.24039
lhand -21.6607 -14.4574
lfingers 7.12502
lthumb 4.73636 15.4697
rfemur -37.4587 9.58516 18.2012
rtibia 22.1192
rfoot -25.2315 -10.7419
rtoes -30.655
lfemur -40.1877 -12.4626 -12.2184
ltibia 24.6129
lfoot -16.7427 5.91448
ltoes -39.2068
244
root 8.95832 16.1631 32.1669 -149.896 -1.7304 180.738
lowerback -13.1234 -1.19347 -2.2922
upperback 0.420578 -1.29776 0.0822653
thorax 7.8806 -0.749404 1.12376
lowerneck -0.879918 -2.86557 -1.65304
upperneck -19.3298 -1.33916 6.54572
head -5.595 -0.255544 2.33225
rclavicle 1.39149e-015 9.54166e-015
rhumerus -49.3625 -13.4435 -66.6737
rradius 23.884
rwrist 7.85341
rhand -7.03406 -48.48
rfingers 7.12502
rthumb 18.8381 -77.5878
lclavicle 1.39149e-015 9.54166e-015
lhumerus -47.0129 -16.6295 78.5944
lradius 32.3144
lwrist 3.65417
lhand -21.5695 -14.9297
lfingers 7.12502
lthumb 4.82451 14.9953
rfemur -38.6196 9.25272 17.8692
rtibia 23.4488
rfoot -25.7681 -10.7297
rtoes -30.0609
lfemur -41.4351 -12.3392 -12.444
ltibia 25.9845
lfoot -17.2601 5.57624
ltoes -39.4434
245
root 8.96078 16.1377 32.1806 -149.35 -1.74963 180.685
lowerback -12.7774 -1.25246 -2.31821
upperback 0.381791 -1.38603 0.164758
thorax 7.64893 -0.792122 1.21549
lowerneck -0.963853 -2.815 -1.74614
upperneck -19.6537 -1.23299 6.40208
head -5.68738 -0.16778 2.29947
rclavicle 1.21259e-014 4.77083e-015
rhumerus -49.852 -13.2013 -66.2881
rradius 23.9632
rwrist 7.91648
rhand -6.87067 -48.6059
rfingers 7.12502
rthumb 18.9952 -77.6984
lclavicle 1.21259e-014 4.77083e-015
lhumerus -47.8171 -16.7971 78.8514
lradius 32.6929
lwrist 3.76552
lhand -21.4795 -15.5294
lfingers 7.12502
lthumb 4.91141 14.3937
rfemur -39.7918 9.36924 17.647
rtibia 24.3487
rfoot -25.9472 -11.029
rtoes -30.1577
lfemur -42.8417 -12.1401 -12.3605
ltibia 27.3941
lfoot -17.7835 5.22958
ltoes -38.4623
246
root 8.96447 16.102 32.1983 -148.57 -1.74287 180.824
lowerback -12.6337 -1.27901 -2.19601
upperback 0.247315 -1.46147 0.348142
thorax 7.42799 -0.826364 1.33061
lowerneck -1.18088 -2.74226 -1.94395
upperneck -19.8865 -1.11125 6.23362
head -5.72818 -0.0609922 2.27347
rclavicle -2.18663e-015 -7.15625e-015
rhumerus -50.3288 -12.6427 -65.9476
rradius 24.0804
rwrist 7.67207
rhand -6.95659 -48.6751
rfingers 7.12502
rthumb 18.9126 -77.7756
lclavicle -2.18663e-015 -7.15625e-015
lhumerus -48.7441 -16.7915 79.1797
lradius 33.1315
lwrist 3.8516
lhand -21.2795 -15.473
lfingers 7.12502
lthumb 5.10447 14.4455
rfemur -41.402 9.30498 17.7084
rtibia 25.6379
rfoot -26.4409 -10.8657
rtoes -29.8947
lfemur -44.5428 -11.9248 -11.9551
ltibia 28.7888
lfoot -18.2784 5.02027
ltoes -37.4159
247
root 8.96985 16.0622 32.2134 -147.854 -1.79561 180.797
lowerback -12.4894 -1.31556 -2.17589
upperback 0.183045 -1.52321 0.417315
thorax 7.28155 -0.855894 1.38424
lowerneck -1.45499 -2.77703 -1.98945
upperneck -20.0821 -1.12568 6.08998
head -5.74359 -0.029924 2.23428
rclavicle -7.95139e-015 -4.77083e-015
rhumerus -50.9145 -12.0538 -65.8922
rradius 24.4609
rwrist 6.98567
rhand -7.07401 -48.8616
rfingers 7.12502
rthumb 18.7996 -77.9731
lclavicle -7.95139e-015 -4.77083e-015
lhumerus -49.6671 -17.0729 79.4708
lradius 33.8036
lwrist 4.28301
lhand -20.9372 -14.9806
lfingers 7.12502
lthumb 5.43496 14.9297
rfemur -42.904 9.13738 17.6121
rtibia 26.96
rfoot -27.02 -10.5283
rtoes -28.7524
lfemur -46.1401 -11.7025 -11.8118
ltibia 30.1902
lfoot -18.8071 4.86933
ltoes -38.0415
248
root 8.97305 16.0207 32.2282 -147.342 -1.8052 180.645
lowerback -12.2812 -1.34407 -2.24857
upperback 0.267001 -1.54569 0.36694
thorax 7.25521 -0.86682 1.371
lowerneck -1.43367 -2.87821 -1.85284
upperneck -20.5695 -1.18846 5.98268
head -5.90161 -0.03549 2.18279
rclavicle -1.59028e-014 6.75868e-015
rhumerus -51.4153 -11.9741 -65.7335
rradius 24.6647
rwrist 6.68594
rhand -7.02785 -48.6562
rfingers 7.12502
rthumb 18.844 -77.7634
lclavicle -1.59028e-014 6.75868e-015
lhumerus -50.3992 -17.6496 79.7685
lradius 34.3757
lwrist 4.9012
lhand -20.9428 -15.0035
lfingers 7.12502
lthumb 5.42956 14.907
rfemur -44.2139 9.05425 17.3581
rtibia 28.354
rfoot -27.5499 -10.5999
rtoes -28.5669
lfemur -47.5404 -11.4642 -11.9257
ltibia 31.7103
lfoot -19.4185 4.73036
ltoes -39.8089
249
root 8.97571 15.9771 32.2473 -146.881 -1.8062 180.61
lowerback -12.3421 -1.38583 -2.19028
upperback 0.618485 -1.59027 0.351779
thorax 7.66649 -0.886291 1.30886
lowerneck -1.44861 -3.02693 -1.72138
upperneck -21.3731 -1.24587 5.90414
head -6.15486 -0.0170442 2.14221
rclavicle -1.21259e-014 1.59028e-015
rhumerus -51.3258 -12.3372 -65.3854
rradius 24.5097
rwrist 6.88921
rhand -6.86122 -48.0892
rfingers 7.12502
rthumb 19.0043 -77.1808
lclavicle -1.21259e-014 1.59028e-015
lhumerus -50.6029 -17.9387 79.8879
lradius 34.68
lwrist 5.25425
lhand -21.1177 -15.211
lfingers 7.12502
lthumb 5.2607 14.7037
rfemur -45.6203 8.9743 17.2696
rtibia 29.9406
rfoot -28.1426 -10.8542
rtoes -29.2822
lfemur -49.0582 -11.1933 -11.8964
ltibia 33.4607
lfoot -20.0635 4.4723
ltoes -40.3754
250
root 8.97765 15.9291 32.2652 -146.48 -1.76099 180.63
lowerback -11.74 -1.41732 -2.0892
upperback 0.605482 -1.6584 0.379019
thorax 7.31098 -0.911818 1.2809
lowerneck -1.47529 -3.14494 -1.75407
upperneck -21.7248 -1.34606 5.91003
head -6.25791 -0.0415242 2.15601
rclavicle 7.15625e-015 -6.75868e-015
rhumerus -51.7685 -11.9464 -65.2113
rradius 24.6442
rwrist 6.64748
rhand -6.68973 -48.2127
rfingers 7.12502
rthumb 19.1692 -77.288
lclavicle 7.15625e-015 -6.75868e-015
lhumerus -51.4672 -17.9751 80.1037
lradius 35.1597
lwrist 5.4443
lhand -20.9356 -14.8587
lfingers 7.12502
lthumb 5.4365 15.0516
rfemur -47.0342 8.75022 17.3171
rtibia 31.6703
rfoot -28.7978 -10.8749
rtoes -29.7414
lfemur -50.4928 -10.8649 -11.8625
ltibia 35.176
lfoot -20.7079 4.05254
ltoes -39.275
251
root 8.97733 15.8604 32.2818 -145.644 -1.67209 180.662
lowerback -11.6242 -1.37308 -2.04449
upperback 0.449061 -1.61748 0.43021
thorax 7.07667 -0.890198 1.32129
lowerneck -1.49103 -3.24676 -1.73484
upperneck -22.027 -1.44195 5.84641
head -6.34931 -0.0652442 2.13826
rclavicle -5.96354e-016 -1.27222e-014
rhumerus -52.3591 -11.485 -65.0887
rradius 24.9003
rwrist 6.13711
rhand -6.60654 -48.6992
rfingers 7.12502
rthumb 19.2492 -77.7666
lclavicle -5.96354e-016 -1.27222e-014
lhumerus -52.3689 -18.1838 80.4706
lradius 35.6948
lwrist 5.65989
lhand -20.7133 -14.8453
lfingers 7.12502
lthumb 5.65112 15.0593
rfemur -48.9237 8.27954 17.43
rtibia 33.3262
rfoot -29.2414 -10.7471
rtoes -30.6762
lfemur -52.3463 -10.4358 -11.7859
ltibia 36.8661
lfoot -21.2467 3.87956
ltoes -38.9217
252
root 8.98099 15.7935 32.2969 -145.03 -1.65409 180.642
lowerback -11.4943 -1.31437 -1.9517
upperback 0.512381 -1.54615 0.357919
thorax 7.06288 -0.849668 1.20725
lowerneck -1.48005 -3.39085 -1.60033
upperneck -22.4371 -1.56133 5.81642
head -6.48101 -0.10319 2.11358
rclavicle 8.74653e-015 -1.07344e-014
rhumerus -52.6827 -11.8296 -64.8105
rradius 24.8751
rwrist 6.17051
rhand -6.67315 -48.8493
rfingers 7.12502
rthumb 19.1852 -77.923
lclavicle 8.74653e-015 -1.07344e-014
lhumerus -52.9444 -18.6153 80.6467
lradius 36.1428
lwrist 5.97145
lhand -20.6685 -15.1527
lfingers 7.12502
lthumb 5.69437 14.7508
rfemur -50.4633 7.70431 17.6731
rtibia 34.785
rfoot -29.6578 -10.6471
rtoes -31.9234
lfemur -53.907 -10.0238 -11.8832
ltibia 38.5151
lfoot -21.5648 4.08996
ltoes -40.9914
253
root 8.98651 15.7234 32.3146 -144.521 -1.50747 180.486
lowerback -10.8969 -1.29058 -2.13911
upperback 0.390031 -1.50031 0.299266
thorax 6.59585 -0.828909 1.2721
lowerneck -1.49222 -3.47972 -1.55551
upperneck -22.6336 -1.65483 5.7705
head -6.54011 -0.134706 2.09649
rclavicle -2.5842e-015 1.19271e-015
rhumerus -53.2409 -11.9579 -64.4304
rradius 24.9006
rwrist 6.39223
rhand -6.73997 -49.0099
rfingers 7.12502
rthumb 19.1209 -78.09
lclavicle -2.5842e-015 1.19271e-015
lhumerus -53.8146 -18.9226 80.9675
lradius 36.5928
lwrist 6.332
lhand -20.668 -15.1109
lfingers 7.12502
lthumb 5.69493 14.7926
rfemur -52.0167 7.32961 17.6247
rtibia 36.5302
rfoot -30.3389 -10.4943
rtoes -32.0603
lfemur -55.376 -9.61492 -12.1881
ltibia 40.1531
lfoot -22.0254 3.99699
ltoes -41.9286
254
root 8.99101 15.6506 32.3321 -144.162 -1.35435 180.362
lowerback -10.5086 -1.26311 -2.37324
upperback 0.565982 -1.43148 0.264388
thorax 6.5652 -0.800587 1.38428
lowerneck -1.30569 -3.73151 -1.40668
upperneck -23.5269 -1.83115 5.80388
head -6.858 -0.182477 2.09858
rclavicle -1.78906e-015 5.56597e-015
rhumerus -53.4286 -11.9748 -64.2998
rradius 24.9896
rwrist 6.42201
rhand -6.66246 -49.1187
rfingers 7.12502
rthumb 19.1954 -78.1914
lclavicle -1.78906e-015 5.56597e-015
lhumerus -54.2464 -19.1313 81.156
lradius 37.0348
lwrist 6.62717
lhand -20.6289 -15.222
lfingers 7.12502
lthumb 5.7326 14.6805
rfemur -53.3681 7.10243 17.5318
rtibia 38.2835
rfoot -30.9635 -10.2719
rtoes -31.6432
lfemur -56.6465 -9.26599 -12.4273
ltibia 41.7318
lfoot -22.7288 3.32779
ltoes -40.5788
